<svg width="65" height="65" viewBox="0 0 65 65" fill="none" xmlns="http://www.w3.org/2000/svg">
<path d="M27.4462 48.204C27.9357 48.5306 28.5046 48.7181 29.0923 48.7467C29.68 48.7752 30.2644 48.6437 30.7832 48.3661C31.302 48.0885 31.7357 47.6753 32.0381 47.1705C32.3404 46.6658 32.5001 46.0884 32.5 45.5V36.4065L50.1962 48.204C50.6857 48.5306 51.2546 48.7181 51.8423 48.7467C52.43 48.7752 53.0144 48.6437 53.5332 48.3661C54.052 48.0885 54.4857 47.6753 54.7881 47.1705C55.0904 46.6658 55.2501 46.0884 55.25 45.5V19.5C55.2501 18.9116 55.0904 18.3342 54.7881 17.8295C54.4857 17.3247 54.052 16.9115 53.5332 16.6339C53.0144 16.3563 52.43 16.2248 51.8423 16.2533C51.2546 16.2819 50.6857 16.4694 50.1962 16.796L32.5 28.5935V19.5C32.5001 18.9116 32.3404 18.3342 32.0381 17.8295C31.7357 17.3247 31.302 16.9115 30.7832 16.6339C30.2644 16.3563 29.68 16.2248 29.0923 16.2533C28.5046 16.2819 27.9357 16.4694 27.4462 16.796L7.94625 29.796C7.50113 30.0928 7.13617 30.4949 6.88376 30.9666C6.63134 31.4383 6.49927 31.965 6.49927 32.5C6.49927 33.035 6.63134 33.5617 6.88376 34.0334C7.13617 34.5051 7.50113 34.9072 7.94625 35.204L27.4462 48.204V48.204Z" fill="black"/>
</svg>
