<svg width="65" height="65" viewBox="0 0 65 65" fill="none" xmlns="http://www.w3.org/2000/svg">
<path fill-rule="evenodd" clip-rule="evenodd" d="M32.5 58.5C39.3956 58.5 46.0088 55.7607 50.8848 50.8848C55.7607 46.0088 58.5 39.3956 58.5 32.5C58.5 25.6044 55.7607 18.9912 50.8848 14.1152C46.0088 9.23928 39.3956 6.5 32.5 6.5C25.6044 6.5 18.9912 9.23928 14.1152 14.1152C9.23928 18.9912 6.5 25.6044 6.5 32.5C6.5 39.3956 9.23928 46.0088 14.1152 50.8848C18.9912 55.7607 25.6044 58.5 32.5 58.5V58.5ZM31.0538 23.296C30.5643 22.9694 29.9954 22.7819 29.4077 22.7533C28.82 22.7248 28.2356 22.8563 27.7168 23.1339C27.198 23.4115 26.7643 23.8247 26.4619 24.3295C26.1596 24.8342 25.9999 25.4116 26 26V39C25.9999 39.5884 26.1596 40.1658 26.4619 40.6705C26.7643 41.1753 27.198 41.5885 27.7168 41.8661C28.2356 42.1437 28.82 42.2752 29.4077 42.2467C29.9954 42.2181 30.5643 42.0306 31.0538 41.704L40.8038 35.204C41.2489 34.9072 41.6138 34.5051 41.8662 34.0334C42.1187 33.5617 42.2507 33.035 42.2507 32.5C42.2507 31.965 42.1187 31.4383 41.8662 30.9666C41.6138 30.4949 41.2489 30.0928 40.8038 29.796L31.0538 23.296V23.296Z" fill="black"/>
</svg>
