<svg width="68" height="69" viewBox="0 0 68 69" fill="none" xmlns="http://www.w3.org/2000/svg">
<ellipse cx="34" cy="34.5" rx="34" ry="34.5" fill="#F9CE3B"/>
<path d="M14.8037 18.796C14.3143 18.4694 13.7454 18.2819 13.1577 18.2533C12.57 18.2248 11.9856 18.3563 11.4668 18.6339C10.948 18.9115 10.5143 19.3247 10.2119 19.8295C9.90956 20.3342 9.74991 20.9116 9.75 21.5V47.5C9.74991 48.0884 9.90956 48.6658 10.2119 49.1705C10.5143 49.6753 10.948 50.0885 11.4668 50.3661C11.9856 50.6437 12.57 50.7752 13.1577 50.7467C13.7454 50.7181 14.3143 50.5306 14.8037 50.204L32.5 38.4065V47.5C32.4999 48.0884 32.6596 48.6658 32.9619 49.1705C33.2643 49.6753 33.698 50.0885 34.2168 50.3661C34.7356 50.6437 35.32 50.7752 35.9077 50.7467C36.4954 50.7181 37.0643 50.5306 37.5538 50.204L57.0538 37.204C57.4989 36.9072 57.8638 36.5051 58.1162 36.0334C58.3687 35.5617 58.5007 35.035 58.5007 34.5C58.5007 33.965 58.3687 33.4383 58.1162 32.9666C57.8638 32.4949 57.4989 32.0928 57.0538 31.796L37.5538 18.796C37.0643 18.4694 36.4954 18.2819 35.9077 18.2533C35.32 18.2248 34.7356 18.3563 34.2168 18.6339C33.698 18.9115 33.2643 19.3247 32.9619 19.8295C32.6596 20.3342 32.4999 20.9116 32.5 21.5V30.5935L14.8037 18.796Z" fill="black"/>
</svg>
