<svg width="65" height="65" viewBox="0 0 65 65" fill="none" xmlns="http://www.w3.org/2000/svg">
<path fill-rule="evenodd" clip-rule="evenodd" d="M32 58C38.8956 58 45.5088 55.2607 50.3848 50.3848C55.2607 45.5088 58 38.8956 58 32C58 25.1044 55.2607 18.4912 50.3848 13.6152C45.5088 8.73928 38.8956 6 32 6C25.1044 6 18.4912 8.73928 13.6152 13.6152C8.73928 18.4912 6 25.1044 6 32C6 38.8956 8.73928 45.5088 13.6152 50.3848C18.4912 55.2607 25.1044 58 32 58V58ZM27.7977 23.2023C27.1848 22.6102 26.3638 22.2827 25.5117 22.2901C24.6596 22.2975 23.8444 22.6393 23.2418 23.2418C22.6393 23.8444 22.2975 24.6596 22.2901 25.5117C22.2827 26.3638 22.6102 27.1848 23.2023 27.7977L27.4045 32L23.2023 36.2023C22.8918 36.5021 22.6442 36.8607 22.4739 37.2572C22.3036 37.6537 22.2139 38.0802 22.2102 38.5117C22.2064 38.9432 22.2887 39.3712 22.4521 39.7706C22.6155 40.17 22.8568 40.5329 23.162 40.838C23.4671 41.1432 23.83 41.3845 24.2294 41.5479C24.6288 41.7113 25.0568 41.7936 25.4883 41.7898C25.9198 41.7861 26.3463 41.6964 26.7428 41.5261C27.1393 41.3558 27.4979 41.1082 27.7977 40.7977L32 36.5955L36.2023 40.7977C36.8152 41.3898 37.6362 41.7173 38.4883 41.7099C39.3404 41.7025 40.1556 41.3607 40.7582 40.7582C41.3607 40.1556 41.7025 39.3404 41.7099 38.4883C41.7173 37.6362 41.3898 36.8152 40.7977 36.2023L36.5955 32L40.7977 27.7977C41.3898 27.1848 41.7173 26.3638 41.7099 25.5117C41.7025 24.6596 41.3607 23.8444 40.7582 23.2418C40.1556 22.6393 39.3404 22.2975 38.4883 22.2901C37.6362 22.2827 36.8152 22.6102 36.2023 23.2023L32 27.4045L27.7977 23.2023Z" fill="black"/>
</svg>
