<svg width="679" height="261" viewBox="0 0 679 261" fill="none" xmlns="http://www.w3.org/2000/svg">
<line x1="16" y1="220.5" x2="41" y2="220.5" stroke="black"/>
<line x1="58" y1="220.5" x2="80" y2="220.5" stroke="black"/>
<line x1="100" y1="220.5" x2="122" y2="220.5" stroke="black"/>
<line x1="141" y1="220.5" x2="160" y2="220.5" stroke="black"/>
<line x1="170" y1="220.5" x2="196" y2="220.5" stroke="black"/>
<line x1="212" y1="220.5" x2="238" y2="220.5" stroke="black"/>
<line x1="254" y1="220.5" x2="281" y2="220.5" stroke="black"/>
<line x1="286" y1="220.5" x2="323" y2="220.5" stroke="black"/>
<rect y="194" width="340" height="50" fill="url(#paint0_linear_110_2)"/>
<line x1="355" y1="220.5" x2="380" y2="220.5" stroke="black"/>
<line x1="397" y1="220.5" x2="419" y2="220.5" stroke="black"/>
<line x1="439" y1="220.5" x2="461" y2="220.5" stroke="black"/>
<line x1="480" y1="220.5" x2="499" y2="220.5" stroke="black"/>
<line x1="509" y1="220.5" x2="535" y2="220.5" stroke="black"/>
<line x1="551" y1="220.5" x2="577" y2="220.5" stroke="black"/>
<line x1="593" y1="220.5" x2="620" y2="220.5" stroke="black"/>
<line x1="625" y1="220.5" x2="662" y2="220.5" stroke="black"/>
<rect x="339" y="194" width="340" height="50" fill="url(#paint1_linear_110_2)"/>
<defs>
<linearGradient id="paint0_linear_110_2" x1="170" y1="194" x2="170" y2="244" gradientUnits="userSpaceOnUse">
<stop stop-color="#0C0C0C"/>
<stop offset="1" stop-color="#0C0C0C" stop-opacity="0"/>
</linearGradient>
<linearGradient id="paint1_linear_110_2" x1="509" y1="194" x2="509" y2="244" gradientUnits="userSpaceOnUse">
<stop stop-color="#0C0C0C"/>
<stop offset="1" stop-color="#0C0C0C" stop-opacity="0"/>
</linearGradient>
</defs>
</svg>
