<svg width="672" height="261" viewBox="0 0 672 261" fill="none" xmlns="http://www.w3.org/2000/svg">
<rect width="340" height="261" fill="#1B1F1E"/>
<rect width="340" height="261" fill="#1B1F1E"/>
<ellipse cx="68.5" cy="51.5" rx="42.5" ry="16.5" fill="url(#paint0_linear_110_5)"/>
<ellipse cx="221.5" cy="51.5" rx="51.5" ry="16.5" fill="white"/>
<ellipse cx="221.5" cy="51.5" rx="51.5" ry="16.5" fill="url(#paint1_linear_110_5)"/>
<line x1="111.338" y1="67.6314" x2="123.338" y2="78.6314" stroke="black"/>
<line x1="122.63" y1="78.6637" x2="132.63" y2="67.6637" stroke="black"/>
<line x1="253.339" y1="73.6326" x2="266.339" y2="85.6326" stroke="black"/>
<line x1="265.568" y1="85.7481" x2="272.568" y2="73.7481" stroke="black"/>
<rect x="332" width="340" height="261" fill="#1B1F1E"/>
<rect x="332" width="340" height="261" fill="#1B1F1E"/>
<ellipse cx="400.5" cy="51.5" rx="42.5" ry="16.5" fill="url(#paint2_linear_110_5)"/>
<ellipse cx="553.5" cy="51.5" rx="51.5" ry="16.5" fill="white"/>
<ellipse cx="553.5" cy="51.5" rx="51.5" ry="16.5" fill="url(#paint3_linear_110_5)"/>
<line x1="443.338" y1="67.6314" x2="455.338" y2="78.6314" stroke="black"/>
<line x1="454.63" y1="78.6637" x2="464.63" y2="67.6637" stroke="black"/>
<line x1="585.339" y1="73.6326" x2="598.339" y2="85.6326" stroke="black"/>
<line x1="597.568" y1="85.7481" x2="604.568" y2="73.7481" stroke="black"/>
<defs>
<linearGradient id="paint0_linear_110_5" x1="68.5" y1="35" x2="68.5" y2="68" gradientUnits="userSpaceOnUse">
<stop stop-color="#6B6565"/>
<stop offset="1" stop-color="#3E3737" stop-opacity="0"/>
</linearGradient>
<linearGradient id="paint1_linear_110_5" x1="221.5" y1="35" x2="221.5" y2="68" gradientUnits="userSpaceOnUse">
<stop stop-color="#6B6565"/>
<stop offset="1" stop-color="#4B4545" stop-opacity="0"/>
</linearGradient>
<linearGradient id="paint2_linear_110_5" x1="400.5" y1="35" x2="400.5" y2="68" gradientUnits="userSpaceOnUse">
<stop stop-color="#6B6565"/>
<stop offset="1" stop-color="#6B6565" stop-opacity="0"/>
</linearGradient>
<linearGradient id="paint3_linear_110_5" x1="553.5" y1="35" x2="553.5" y2="68" gradientUnits="userSpaceOnUse">
<stop stop-color="#6B6565"/>
<stop offset="1" stop-color="#6B6565" stop-opacity="0"/>
</linearGradient>
</defs>
</svg>
