<svg width="678" height="261" viewBox="0 0 678 261" fill="none" xmlns="http://www.w3.org/2000/svg">
<rect x="16" y="106" width="84" height="117" fill="url(#paint0_linear_110_3)"/>
<rect x="111" y="142" width="59" height="81" fill="url(#paint1_linear_110_3)"/>
<rect x="222" y="82" width="64" height="141" fill="url(#paint2_linear_110_3)"/>
<rect x="196" y="117" width="57" height="106" fill="url(#paint3_linear_110_3)"/>
<rect x="356" y="106" width="84" height="117" fill="url(#paint4_linear_110_3)"/>
<rect x="451" y="142" width="59" height="81" fill="url(#paint5_linear_110_3)"/>
<rect x="562" y="82" width="64" height="141" fill="url(#paint6_linear_110_3)"/>
<rect x="536" y="117" width="57" height="106" fill="url(#paint7_linear_110_3)"/>
<defs>
<linearGradient id="paint0_linear_110_3" x1="58" y1="106" x2="58" y2="223" gradientUnits="userSpaceOnUse">
<stop stop-color="#10F735"/>
<stop offset="1" stop-color="#12EF35" stop-opacity="0"/>
</linearGradient>
<linearGradient id="paint1_linear_110_3" x1="140.5" y1="142" x2="140.5" y2="223" gradientUnits="userSpaceOnUse">
<stop stop-color="#10F635"/>
<stop offset="1" stop-color="#10F635" stop-opacity="0"/>
</linearGradient>
<linearGradient id="paint2_linear_110_3" x1="254" y1="82" x2="254" y2="223" gradientUnits="userSpaceOnUse">
<stop stop-color="#10F635"/>
<stop offset="1" stop-color="#10F635" stop-opacity="0"/>
</linearGradient>
<linearGradient id="paint3_linear_110_3" x1="224.5" y1="117" x2="224.5" y2="223" gradientUnits="userSpaceOnUse">
<stop stop-color="#10F635"/>
<stop offset="1" stop-color="#10F635" stop-opacity="0"/>
</linearGradient>
<linearGradient id="paint4_linear_110_3" x1="398" y1="106" x2="398" y2="223" gradientUnits="userSpaceOnUse">
<stop stop-color="#10F735"/>
<stop offset="1" stop-color="#12EF35" stop-opacity="0"/>
</linearGradient>
<linearGradient id="paint5_linear_110_3" x1="480.5" y1="142" x2="480.5" y2="223" gradientUnits="userSpaceOnUse">
<stop stop-color="#10F635"/>
<stop offset="1" stop-color="#10F635" stop-opacity="0"/>
</linearGradient>
<linearGradient id="paint6_linear_110_3" x1="594" y1="82" x2="594" y2="223" gradientUnits="userSpaceOnUse">
<stop stop-color="#10F635"/>
<stop offset="1" stop-color="#10F635" stop-opacity="0"/>
</linearGradient>
<linearGradient id="paint7_linear_110_3" x1="564.5" y1="117" x2="564.5" y2="223" gradientUnits="userSpaceOnUse">
<stop stop-color="#10F635"/>
<stop offset="1" stop-color="#10F635" stop-opacity="0"/>
</linearGradient>
</defs>
</svg>
