<svg width="68" height="69" viewBox="0 0 68 69" fill="none" xmlns="http://www.w3.org/2000/svg">
<ellipse cx="34" cy="34.5" rx="34" ry="34.5" fill="#F9CE3B"/>
<path fill-rule="evenodd" clip-rule="evenodd" d="M35.5 60.5C42.3956 60.5 49.0088 57.7607 53.8848 52.8848C58.7607 48.0088 61.5 41.3956 61.5 34.5C61.5 27.6044 58.7607 20.9912 53.8848 16.1152C49.0088 11.2393 42.3956 8.5 35.5 8.5C28.6044 8.5 21.9912 11.2393 17.1152 16.1152C12.2393 20.9912 9.5 27.6044 9.5 34.5C9.5 41.3956 12.2393 48.0088 17.1152 52.8848C21.9912 57.7607 28.6044 60.5 35.5 60.5ZM29 24.75C28.138 24.75 27.3114 25.0924 26.7019 25.7019C26.0924 26.3114 25.75 27.138 25.75 28V41C25.75 41.862 26.0924 42.6886 26.7019 43.2981C27.3114 43.9076 28.138 44.25 29 44.25H42C42.862 44.25 43.6886 43.9076 44.2981 43.2981C44.9076 42.6886 45.25 41.862 45.25 41V28C45.25 27.138 44.9076 26.3114 44.2981 25.7019C43.6886 25.0924 42.862 24.75 42 24.75H29Z" fill="black"/>
</svg>
